<svg xmlns="http://www.w3.org/2000/svg" xmlns:xlink="http://www.w3.org/1999/xlink" width="500" zoomAndPan="magnify" viewBox="0 0 375 225" height="300" preserveAspectRatio="xMidYMid meet" version="1.0"><defs><g/></defs><rect x="-37.5" width="450" fill="#ffffff" y="-22.5" height="270" fill-opacity="1"/><rect x="-37.5" width="450" fill="#ffffff" y="-22.5" height="270" fill-opacity="1"/><rect x="-37.5" width="450" fill="#ffffff" y="-22.5" height="270" fill-opacity="1"/><path fill="#e86ca5" d="M 122.308594 79.257812 C 122.308594 79.257812 120.671875 95.863281 109.847656 94.171875 C 109.847656 94.171875 103.417969 90.589844 100.605469 91.472656 C 97.28125 92.515625 105.355469 97.214844 108.402344 96.535156 C 111.449219 95.863281 117.164062 95.007812 117.164062 95.007812 C 117.164062 95.007812 121.148438 91.699219 121.824219 90.347656 C 122.5 88.992188 122.46875 87.289062 122.46875 87.289062 Z M 122.308594 79.257812 " fill-opacity="1" fill-rule="nonzero"/><path fill="#00aae8" d="M 230.566406 76.230469 L 234.46875 79.84375 L 236.199219 98.160156 L 225.578125 100.511719 L 222.421875 98.921875 Z M 230.566406 76.230469 " fill-opacity="1" fill-rule="nonzero"/><path fill="#666463" d="M 230.53125 76.632812 L 223.179688 96.9375 L 227.484375 86.433594 Z M 230.53125 76.632812 " fill-opacity="1" fill-rule="nonzero"/><path fill="#dd944f" d="M 194.304688 137.203125 L 202.394531 137.203125 L 203.164062 124.519531 L 206.296875 107.007812 L 206.296875 85.042969 L 200.296875 87.648438 L 194.304688 120.589844 Z M 194.304688 137.203125 " fill-opacity="1" fill-rule="nonzero"/><path fill="#006eb8" d="M 255.628906 111.636719 L 260.550781 91.328125 L 258.738281 90.605469 L 249.742188 109.242188 Z M 255.628906 111.636719 " fill-opacity="1" fill-rule="nonzero"/><path fill="#ffd776" d="M 133.429688 68.476562 L 184.765625 71.5625 L 182.164062 102 L 185.824219 109.316406 L 152.5 116.253906 L 144.601562 104.84375 L 143.300781 109.753906 L 144.601562 140.957031 L 133.394531 140.269531 L 126.875 111.628906 L 122.191406 87.859375 Z M 133.429688 68.476562 " fill-opacity="1" fill-rule="nonzero"/><path fill="#f7a823" d="M 172.484375 111.878906 L 177.410156 84.140625 L 183.929688 88.75 L 182.496094 101.945312 L 183.292969 109.972656 Z M 172.484375 111.878906 " fill-opacity="1" fill-rule="nonzero"/><path fill="#00aae8" d="M 218.332031 114.515625 L 230.898438 122.738281 L 229.6875 119.507812 L 218.816406 111.15625 Z M 218.332031 114.515625 " fill-opacity="1" fill-rule="nonzero"/><path fill="#ffd776" d="M 143.75 120.933594 L 148.214844 110 L 144.558594 104.71875 L 143.246094 108.878906 Z M 143.75 120.933594 " fill-opacity="1" fill-rule="nonzero"/><path fill="#00b3e9" d="M 201.527344 111.628906 L 187.945312 140.957031 L 179.421875 140.957031 L 183.609375 115.527344 L 187.101562 110.695312 Z M 201.527344 111.628906 " fill-opacity="1" fill-rule="nonzero"/><path fill="#0ebbee" d="M 236.199219 98.160156 L 240.96875 103.5625 L 232.589844 108.886719 L 225.582031 100.507812 Z M 236.199219 98.160156 " fill-opacity="1" fill-rule="nonzero"/><path fill="#006eb8" d="M 240.9375 103.535156 L 250.136719 108.476562 L 248.046875 116.4375 L 232.558594 108.867188 Z M 240.9375 103.535156 " fill-opacity="1" fill-rule="nonzero"/><path fill="#00aae8" d="M 248.046875 116.4375 L 255.628906 111.636719 L 250.136719 108.476562 Z M 248.046875 116.4375 " fill-opacity="1" fill-rule="nonzero"/><path fill="#0ebbee" d="M 212.371094 94.53125 L 218.347656 114.484375 L 222.066406 116.953125 L 218.476562 97.210938 " fill-opacity="1" fill-rule="nonzero"/><path fill="#f7a823" d="M 147.386719 121.371094 L 145.078125 116.253906 L 148.070312 108.929688 L 148.511719 109.566406 L 148.992188 124.429688 Z M 147.386719 121.371094 " fill-opacity="1" fill-rule="nonzero"/><path fill="#fdc600" d="M 139.164062 140.59375 L 143.785156 121.414062 L 144.601562 140.957031 L 139.378906 140.636719 " fill-opacity="1" fill-rule="nonzero"/><path fill="#f7a823" d="M 146.484375 137.375 L 156.304688 137.203125 L 153.59375 116.011719 L 152.210938 109.800781 L 148.140625 110.019531 L 147.945312 125.148438 Z M 146.484375 137.375 " fill-opacity="1" fill-rule="nonzero"/><path fill="#fdc600" d="M 153.59375 116.011719 L 153.65625 137.128906 L 156.226562 137.128906 L 155.523438 120.589844 L 155.246094 115.617188 Z M 153.59375 116.011719 " fill-opacity="1" fill-rule="nonzero"/><path fill="#666463" d="M 133.15625 68.957031 L 122.484375 87.441406 L 128.871094 77.226562 Z M 133.15625 68.957031 " fill-opacity="1" fill-rule="evenodd"/><path fill="#666463" d="M 155.988281 105.445312 L 152.691406 109.574219 L 164.136719 99.085938 L 173.035156 89.386719 Z M 155.988281 105.445312 " fill-opacity="1" fill-rule="nonzero"/><path fill="#666463" d="M 143.609375 123.148438 L 139.4375 140.078125 L 141.742188 132.40625 Z M 143.609375 123.148438 " fill-opacity="1" fill-rule="nonzero"/><path fill="#dd944f" d="M 145.097656 117.246094 L 177.886719 84.460938 L 179.160156 71.105469 L 149.730469 69.457031 L 144.664062 104.328125 Z M 145.097656 117.246094 " fill-opacity="1" fill-rule="nonzero"/><path fill="#666463" d="M 178.386719 83.761719 L 183.292969 89.386719 L 177.488281 84.714844 Z M 178.386719 83.761719 " fill-opacity="1" fill-rule="nonzero"/><path fill="#666463" d="M 184.484375 115.300781 C 184.84375 115.300781 193.191406 114.03125 193.191406 114.03125 L 200.980469 111.761719 Z M 184.484375 115.300781 " fill-opacity="1" fill-rule="nonzero"/><path fill="#0ebbee" d="M 203.167969 86.832031 L 201.527344 111.628906 L 183.609375 115.527344 L 182.164062 102 L 183.644531 84.691406 Z M 203.167969 86.832031 " fill-opacity="1" fill-rule="nonzero"/><path fill="#cad400" d="M 206.296875 91.859375 L 225.816406 100.59375 L 205.515625 72.308594 Z M 206.296875 91.859375 " fill-opacity="1" fill-rule="nonzero"/><path fill="#00aae8" d="M 205.488281 72.339844 L 222.621094 67.707031 L 201.09375 57.738281 Z M 205.488281 72.339844 " fill-opacity="1" fill-rule="nonzero"/><path fill="#666463" d="M 221.445312 68.042969 L 213.433594 69.816406 L 206.363281 72.101562 Z M 221.445312 68.042969 " fill-opacity="1" fill-rule="nonzero"/><path fill="#666463" d="M 168.191406 72.226562 L 176.867188 82.859375 C 176.867188 82.859375 171.789062 77.183594 171.359375 76.804688 C 170.929688 76.425781 168.191406 72.226562 168.191406 72.226562 Z M 168.191406 72.226562 " fill-opacity="1" fill-rule="evenodd"/><path fill="#f7a823" d="M 179.21875 71.140625 L 177.804688 84.296875 L 166.503906 70.429688 Z M 179.21875 71.140625 " fill-opacity="1" fill-rule="nonzero"/><path fill="#666463" d="M 144.273438 104.378906 L 148.453125 85.011719 L 149.851562 69.855469 Z M 144.273438 104.378906 " fill-opacity="1" fill-rule="nonzero"/><path fill="#e7589d" d="M 144.703125 104.011719 L 145.140625 117.207031 L 139.308594 140.621094 L 133.429688 140.222656 L 126.859375 111.484375 Z M 144.703125 104.011719 " fill-opacity="1" fill-rule="nonzero"/><path fill="#666463" d="M 137.988281 106.832031 L 128.246094 111.523438 L 138.066406 107.707031 L 144.265625 104.847656 Z M 137.988281 106.832031 " fill-opacity="1" fill-rule="nonzero"/><path fill="#e86ca5" d="M 126.875 111.625 L 122.191406 87.859375 L 133.429688 68.476562 L 150.019531 69.472656 L 144.742188 104.726562 L 126.9375 111.640625 Z M 126.875 111.625 " fill-opacity="1" fill-rule="nonzero"/><path fill="#e7589d" d="M 133.46875 68.507812 L 122.1875 87.9375 L 122.1875 79.589844 Z M 133.46875 68.507812 " fill-opacity="1" fill-rule="nonzero"/><path fill="#0ebbee" d="M 205.488281 72.316406 L 216.238281 87.238281 L 223.152344 96.898438 L 230.566406 76.230469 L 222.621094 67.707031 Z M 205.488281 72.316406 " fill-opacity="1" fill-rule="nonzero"/><path fill="#f8c234" d="M 186.738281 92.339844 L 200.460938 92.960938 L 206.296875 91.859375 L 205.507812 72.316406 L 201.136719 57.730469 L 183.164062 62.445312 L 179.851562 66.210938 L 179.832031 66.238281 L 179.65625 66.433594 L 179.644531 66.445312 L 179.589844 66.507812 L 179.539062 67.09375 L 179.539062 67.097656 L 179.160156 71.269531 L 177.722656 84.066406 L 177.703125 84.296875 Z M 186.738281 92.339844 " fill-opacity="1" fill-rule="nonzero"/><g fill="#545454" fill-opacity="1"><g transform="translate(60.8048, 188.706787)"><g><path d="M 4.5625 0 L 17.941406 0 C 24.382812 0 27.875 -3.265625 27.875 -9.082031 C 27.875 -12.839844 25.769531 -15.4375 23.667969 -16.417969 C 23.355469 -16.597656 23.355469 -16.734375 23.625 -16.910156 C 25.101562 -17.851562 26.441406 -19.910156 26.441406 -22.816406 C 26.441406 -28.679688 22.90625 -31.898438 16.6875 -31.898438 L 4.5625 -31.898438 C 4.296875 -31.898438 4.117188 -31.722656 4.117188 -31.453125 L 4.117188 -0.449219 C 4.117188 -0.179688 4.296875 0 4.5625 0 Z M 11.320312 -19.058594 C 11.050781 -19.058594 10.871094 -19.238281 10.871094 -19.507812 L 10.871094 -25.414062 C 10.871094 -25.679688 11.050781 -25.859375 11.320312 -25.859375 L 16.6875 -25.859375 C 18.925781 -25.859375 20.402344 -24.429688 20.402344 -22.460938 C 20.402344 -20.671875 19.148438 -19.058594 16.597656 -19.058594 Z M 11.320312 -6.039062 C 11.050781 -6.039062 10.871094 -6.21875 10.871094 -6.488281 L 10.871094 -12.570312 C 10.871094 -12.839844 11.050781 -13.019531 11.320312 -13.019531 L 17.941406 -13.019531 C 20.3125 -13.019531 21.832031 -11.410156 21.832031 -9.484375 C 21.832031 -7.335938 20.179688 -6.039062 17.941406 -6.039062 Z M 11.320312 -6.039062 "/></g></g></g><g fill="#545454" fill-opacity="1"><g transform="translate(104.242942, 188.706787)"><g><path d="M 18.03125 0.132812 C 29.261719 0.132812 31.945312 -7.738281 31.945312 -13.734375 L 31.945312 -31.453125 C 31.945312 -31.722656 31.765625 -31.898438 31.496094 -31.898438 L 25.589844 -31.898438 C 25.324219 -31.898438 25.144531 -31.722656 25.144531 -31.453125 L 25.144531 -13.734375 C 25.011719 -8.320312 22.371094 -5.90625 18.03125 -5.90625 C 13.601562 -5.90625 10.871094 -8.367188 10.871094 -13.734375 L 10.871094 -31.453125 C 10.871094 -31.722656 10.691406 -31.898438 10.425781 -31.898438 L 4.5625 -31.898438 C 4.296875 -31.898438 4.117188 -31.722656 4.117188 -31.453125 L 4.117188 -13.734375 C 4.117188 -7.738281 6.800781 0.132812 18.03125 0.132812 Z M 18.03125 0.132812 "/></g></g></g><g fill="#545454" fill-opacity="1"><g transform="translate(151.885932, 188.706787)"><g><path d="M 4.5625 0 L 15.839844 0 C 25.054688 0 32.4375 -6.84375 32.4375 -15.929688 C 32.4375 -25.054688 25.054688 -31.898438 15.839844 -31.898438 L 4.5625 -31.898438 C 4.296875 -31.898438 4.117188 -31.722656 4.117188 -31.453125 L 4.117188 -0.449219 C 4.117188 -0.179688 4.296875 0 4.5625 0 Z M 11.320312 -5.996094 C 11.050781 -5.996094 10.871094 -6.175781 10.871094 -6.441406 L 10.871094 -25.414062 C 10.871094 -25.679688 11.050781 -25.859375 11.320312 -25.859375 L 16.195312 -25.859375 C 21.074219 -25.859375 25.636719 -21.789062 25.636719 -15.929688 C 25.636719 -10.066406 21.074219 -5.996094 16.195312 -5.996094 Z M 11.320312 -5.996094 "/></g></g></g><g fill="#545454" fill-opacity="1"><g transform="translate(199.573654, 188.706787)"><g><path d="M 4.117188 0 L 23.308594 0 C 23.578125 0 23.757812 -0.179688 23.757812 -0.449219 L 23.757812 -5.59375 C 23.757812 -5.859375 23.578125 -6.039062 23.308594 -6.039062 L 10.871094 -6.039062 C 10.605469 -6.039062 10.425781 -6.21875 10.425781 -6.488281 L 10.425781 -12.214844 C 10.425781 -12.484375 10.605469 -12.660156 10.871094 -12.660156 L 19.507812 -12.660156 C 19.777344 -12.660156 19.953125 -12.839844 19.953125 -13.109375 L 19.953125 -18.253906 C 19.953125 -18.523438 19.777344 -18.703125 19.507812 -18.703125 L 10.871094 -18.703125 C 10.605469 -18.703125 10.425781 -18.878906 10.425781 -19.148438 L 10.425781 -25.414062 C 10.425781 -25.679688 10.605469 -25.859375 10.871094 -25.859375 L 22.863281 -25.859375 C 23.132812 -25.859375 23.308594 -26.039062 23.308594 -26.308594 L 23.308594 -31.453125 C 23.308594 -31.722656 23.132812 -31.898438 22.863281 -31.898438 L 4.117188 -31.898438 C 3.847656 -31.898438 3.667969 -31.722656 3.667969 -31.453125 L 3.667969 -0.449219 C 3.667969 -0.179688 3.847656 0 4.117188 0 Z M 4.117188 0 "/></g></g></g><g fill="#545454" fill-opacity="1"><g transform="translate(239.075339, 188.706787)"><g><path d="M 4.5625 0 L 10.425781 0 C 10.691406 0 10.871094 -0.179688 10.871094 -0.449219 L 10.871094 -15.570312 C 10.871094 -15.972656 11.183594 -16.0625 11.410156 -15.75 L 20.042969 -2.730469 C 20.222656 -2.460938 20.492188 -2.460938 20.671875 -2.730469 L 29.351562 -15.792969 C 29.574219 -16.105469 29.886719 -15.972656 29.886719 -15.570312 L 29.886719 -0.449219 C 29.886719 -0.179688 30.066406 0 30.335938 0 L 36.238281 0 C 36.507812 0 36.6875 -0.179688 36.6875 -0.449219 L 36.6875 -31.453125 C 36.6875 -31.722656 36.507812 -31.898438 36.238281 -31.898438 L 32.929688 -31.898438 C 32.707031 -31.898438 32.480469 -31.855469 32.347656 -31.632812 L 20.671875 -13.421875 C 20.492188 -13.152344 20.222656 -13.152344 20.042969 -13.421875 L 8.410156 -31.632812 C 8.277344 -31.855469 8.054688 -31.898438 7.828125 -31.898438 L 4.5625 -31.898438 C 4.296875 -31.898438 4.117188 -31.722656 4.117188 -31.453125 L 4.117188 -0.449219 C 4.117188 -0.179688 4.296875 0 4.5625 0 Z M 4.5625 0 "/></g></g></g><g fill="#545454" fill-opacity="1"><g transform="translate(291.459978, 188.706787)"><g><path d="M 4.117188 0 L 9.976562 0 C 10.246094 0 10.425781 -0.179688 10.425781 -0.449219 L 10.425781 -31.453125 C 10.425781 -31.722656 10.246094 -31.898438 9.976562 -31.898438 L 4.117188 -31.898438 C 3.847656 -31.898438 3.667969 -31.722656 3.667969 -31.453125 L 3.667969 -0.449219 C 3.667969 -0.179688 3.847656 0 4.117188 0 Z M 4.117188 0 "/></g></g></g><g fill="#737373" fill-opacity="1"><g transform="translate(98.768473, 207.290007)"><g><path d="M 1.066406 0 L 2.976562 0 C 3.050781 0 3.113281 -0.03125 3.144531 -0.105469 L 3.890625 -1.722656 C 3.921875 -1.800781 3.996094 -1.832031 4.074219 -1.832031 L 8.679688 -1.832031 C 8.757812 -1.832031 8.816406 -1.800781 8.847656 -1.722656 L 9.582031 -0.105469 C 9.613281 -0.03125 9.6875 0 9.765625 0 L 11.703125 0 C 11.808594 0 11.855469 -0.078125 11.808594 -0.183594 L 7.035156 -10.769531 C 7.003906 -10.847656 6.925781 -10.878906 6.851562 -10.878906 L 5.902344 -10.878906 C 5.828125 -10.878906 5.75 -10.847656 5.722656 -10.769531 L 0.960938 -0.183594 C 0.914062 -0.078125 0.960938 0 1.066406 0 Z M 5.035156 -3.875 C 4.929688 -3.875 4.882812 -3.953125 4.929688 -4.058594 L 6.285156 -7.140625 C 6.332031 -7.246094 6.453125 -7.246094 6.5 -7.140625 L 7.828125 -4.058594 C 7.871094 -3.953125 7.828125 -3.875 7.71875 -3.875 Z M 5.035156 -3.875 "/></g></g></g><g fill="#737373" fill-opacity="1"><g transform="translate(113.803856, 207.290007)"><g/></g></g><g fill="#737373" fill-opacity="1"><g transform="translate(122.191853, 207.290007)"><g><path d="M 6.710938 0.046875 C 8.984375 0.046875 10.894531 -1.402344 11.273438 -3.265625 C 11.304688 -3.339844 11.320312 -3.464844 11.199219 -3.476562 L 9.320312 -3.722656 C 9.246094 -3.738281 9.152344 -3.738281 9.109375 -3.632812 C 8.863281 -3.003906 8.117188 -2.015625 6.621094 -2.015625 C 5.082031 -2.015625 3.707031 -3.21875 3.707031 -5.460938 C 3.707031 -7.6875 5.082031 -8.878906 6.621094 -8.878906 C 8.117188 -8.878906 8.863281 -7.871094 9.109375 -7.246094 C 9.152344 -7.140625 9.246094 -7.140625 9.320312 -7.15625 L 11.199219 -7.398438 C 11.320312 -7.414062 11.304688 -7.535156 11.273438 -7.613281 C 10.878906 -9.472656 8.984375 -10.921875 6.710938 -10.921875 C 3.539062 -10.921875 1.402344 -8.4375 1.402344 -5.460938 C 1.402344 -2.488281 3.539062 0.046875 6.710938 0.046875 Z M 6.710938 0.046875 "/></g></g></g><g fill="#737373" fill-opacity="1"><g transform="translate(136.861318, 207.290007)"><g><path d="M 6.851562 0.046875 C 9.992188 0.046875 12.28125 -2.304688 12.28125 -5.445312 C 12.28125 -8.589844 9.992188 -10.921875 6.851562 -10.921875 C 3.707031 -10.921875 1.402344 -8.589844 1.402344 -5.445312 C 1.402344 -2.304688 3.707031 0.046875 6.851562 0.046875 Z M 6.851562 -2.015625 C 5.1875 -2.015625 3.707031 -3.1875 3.707031 -5.445312 C 3.707031 -7.703125 5.1875 -8.863281 6.851562 -8.863281 C 8.496094 -8.863281 9.960938 -7.703125 9.960938 -5.445312 C 9.960938 -3.1875 8.496094 -2.015625 6.851562 -2.015625 Z M 6.851562 -2.015625 "/></g></g></g><g fill="#737373" fill-opacity="1"><g transform="translate(152.506548, 207.290007)"><g><path d="M 1.554688 0 L 3.554688 0 C 3.644531 0 3.707031 -0.0625 3.707031 -0.152344 L 3.707031 -5.308594 C 3.707031 -5.445312 3.8125 -5.476562 3.890625 -5.371094 L 6.835938 -0.929688 C 6.894531 -0.839844 6.988281 -0.839844 7.046875 -0.929688 L 10.007812 -5.386719 C 10.085938 -5.492188 10.191406 -5.445312 10.191406 -5.308594 L 10.191406 -0.152344 C 10.191406 -0.0625 10.253906 0 10.34375 0 L 12.359375 0 C 12.449219 0 12.511719 -0.0625 12.511719 -0.152344 L 12.511719 -10.726562 C 12.511719 -10.816406 12.449219 -10.878906 12.359375 -10.878906 L 11.230469 -10.878906 C 11.152344 -10.878906 11.078125 -10.863281 11.03125 -10.785156 L 7.046875 -4.578125 C 6.988281 -4.484375 6.894531 -4.484375 6.835938 -4.578125 L 2.867188 -10.785156 C 2.824219 -10.863281 2.746094 -10.878906 2.667969 -10.878906 L 1.554688 -10.878906 C 1.464844 -10.878906 1.402344 -10.816406 1.402344 -10.726562 L 1.402344 -0.152344 C 1.402344 -0.0625 1.464844 0 1.554688 0 Z M 1.554688 0 "/></g></g></g><g fill="#737373" fill-opacity="1"><g transform="translate(168.380482, 207.290007)"><g><path d="M 1.402344 0 L 3.402344 0 C 3.492188 0 3.554688 -0.0625 3.554688 -0.152344 L 3.554688 -2.683594 C 3.554688 -2.777344 3.617188 -2.835938 3.707031 -2.835938 L 5.628906 -2.835938 C 8.085938 -2.835938 10.023438 -4.425781 10.023438 -6.867188 C 10.023438 -9.304688 8.085938 -10.878906 5.628906 -10.878906 L 1.402344 -10.878906 C 1.3125 -10.878906 1.25 -10.816406 1.25 -10.726562 L 1.25 -0.152344 C 1.25 -0.0625 1.3125 0 1.402344 0 Z M 3.707031 -4.898438 C 3.617188 -4.898438 3.554688 -4.957031 3.554688 -5.050781 L 3.554688 -8.664062 C 3.554688 -8.757812 3.617188 -8.816406 3.707031 -8.816406 L 5.476562 -8.816406 C 6.710938 -8.816406 7.703125 -8.328125 7.703125 -6.867188 C 7.703125 -5.402344 6.726562 -4.898438 5.476562 -4.898438 Z M 3.707031 -4.898438 "/></g></g></g><g fill="#737373" fill-opacity="1"><g transform="translate(181.769264, 207.290007)"><g><path d="M 1.066406 0 L 2.976562 0 C 3.050781 0 3.113281 -0.03125 3.144531 -0.105469 L 3.890625 -1.722656 C 3.921875 -1.800781 3.996094 -1.832031 4.074219 -1.832031 L 8.679688 -1.832031 C 8.757812 -1.832031 8.816406 -1.800781 8.847656 -1.722656 L 9.582031 -0.105469 C 9.613281 -0.03125 9.6875 0 9.765625 0 L 11.703125 0 C 11.808594 0 11.855469 -0.078125 11.808594 -0.183594 L 7.035156 -10.769531 C 7.003906 -10.847656 6.925781 -10.878906 6.851562 -10.878906 L 5.902344 -10.878906 C 5.828125 -10.878906 5.75 -10.847656 5.722656 -10.769531 L 0.960938 -0.183594 C 0.914062 -0.078125 0.960938 0 1.066406 0 Z M 5.035156 -3.875 C 4.929688 -3.875 4.882812 -3.953125 4.929688 -4.058594 L 6.285156 -7.140625 C 6.332031 -7.246094 6.453125 -7.246094 6.5 -7.140625 L 7.828125 -4.058594 C 7.871094 -3.953125 7.828125 -3.875 7.71875 -3.875 Z M 5.035156 -3.875 "/></g></g></g><g fill="#737373" fill-opacity="1"><g transform="translate(196.804649, 207.290007)"><g><path d="M 1.554688 0 L 3.554688 0 C 3.644531 0 3.707031 -0.0625 3.707031 -0.152344 L 3.707031 -6.210938 C 3.707031 -6.347656 3.800781 -6.40625 3.890625 -6.285156 L 8.832031 -0.0898438 C 8.878906 -0.03125 8.941406 0 9.015625 0 L 10.3125 0 C 10.40625 0 10.464844 -0.0625 10.464844 -0.152344 L 10.464844 -10.726562 C 10.464844 -10.816406 10.40625 -10.878906 10.3125 -10.878906 L 8.300781 -10.878906 C 8.207031 -10.878906 8.148438 -10.816406 8.148438 -10.726562 L 8.148438 -4.667969 C 8.148438 -4.53125 8.054688 -4.484375 7.964844 -4.59375 L 3.035156 -10.785156 C 2.992188 -10.847656 2.929688 -10.878906 2.851562 -10.878906 L 1.554688 -10.878906 C 1.464844 -10.878906 1.402344 -10.816406 1.402344 -10.726562 L 1.402344 -0.152344 C 1.402344 -0.0625 1.464844 0 1.554688 0 Z M 1.554688 0 "/></g></g></g><g fill="#737373" fill-opacity="1"><g transform="translate(210.650823, 207.290007)"><g><path d="M 5.125 0 L 7.125 0 C 7.214844 0 7.277344 -0.046875 7.277344 -0.152344 L 7.277344 -4.789062 C 7.277344 -4.867188 7.308594 -4.929688 7.339844 -4.988281 L 11.425781 -10.695312 C 11.488281 -10.785156 11.457031 -10.878906 11.335938 -10.878906 L 9.109375 -10.878906 C 9.03125 -10.878906 8.972656 -10.863281 8.925781 -10.785156 L 6.226562 -7.003906 C 6.164062 -6.910156 6.070312 -6.910156 6.011719 -7.003906 L 3.324219 -10.785156 C 3.28125 -10.863281 3.21875 -10.878906 3.144531 -10.878906 L 0.914062 -10.878906 C 0.792969 -10.878906 0.761719 -10.785156 0.824219 -10.695312 L 4.914062 -4.988281 C 4.957031 -4.929688 4.972656 -4.867188 4.972656 -4.789062 L 4.972656 -0.152344 C 4.972656 -0.0625 5.035156 0 5.125 0 Z M 5.125 0 "/></g></g></g><g fill="#737373" fill-opacity="1"><g transform="translate(225.16783, 207.290007)"><g/></g></g><g fill="#737373" fill-opacity="1"><g transform="translate(233.555829, 207.290007)"><g><path d="M 6.851562 0.046875 C 9.992188 0.046875 12.28125 -2.304688 12.28125 -5.445312 C 12.28125 -8.589844 9.992188 -10.921875 6.851562 -10.921875 C 3.707031 -10.921875 1.402344 -8.589844 1.402344 -5.445312 C 1.402344 -2.304688 3.707031 0.046875 6.851562 0.046875 Z M 6.851562 -2.015625 C 5.1875 -2.015625 3.707031 -3.1875 3.707031 -5.445312 C 3.707031 -7.703125 5.1875 -8.863281 6.851562 -8.863281 C 8.496094 -8.863281 9.960938 -7.703125 9.960938 -5.445312 C 9.960938 -3.1875 8.496094 -2.015625 6.851562 -2.015625 Z M 6.851562 -2.015625 "/></g></g></g><g fill="#737373" fill-opacity="1"><g transform="translate(249.20106, 207.290007)"><g><path d="M 1.554688 0 L 3.554688 0 C 3.644531 0 3.707031 -0.0625 3.707031 -0.152344 L 3.707031 -3.8125 C 3.707031 -3.90625 3.769531 -3.964844 3.859375 -3.964844 L 6.5 -3.964844 C 6.589844 -3.964844 6.652344 -4.027344 6.652344 -4.121094 L 6.652344 -5.875 C 6.652344 -5.964844 6.589844 -6.027344 6.5 -6.027344 L 3.859375 -6.027344 C 3.769531 -6.027344 3.707031 -6.085938 3.707031 -6.179688 L 3.707031 -8.664062 C 3.707031 -8.757812 3.769531 -8.816406 3.859375 -8.816406 L 8.039062 -8.816406 C 8.132812 -8.816406 8.191406 -8.878906 8.191406 -8.972656 L 8.191406 -10.726562 C 8.191406 -10.816406 8.132812 -10.878906 8.039062 -10.878906 L 1.554688 -10.878906 C 1.464844 -10.878906 1.402344 -10.816406 1.402344 -10.726562 L 1.402344 -0.152344 C 1.402344 -0.0625 1.464844 0 1.554688 0 Z M 1.554688 0 "/></g></g></g><g fill="#737373" fill-opacity="1"><g transform="translate(260.754721, 207.290007)"><g/></g></g><g fill="#737373" fill-opacity="1"><g transform="translate(64.250262, 225.555518)"><g><path d="M 1.554688 0 L 6.117188 0 C 8.316406 0 9.503906 -1.113281 9.503906 -3.097656 C 9.503906 -4.378906 8.789062 -5.261719 8.070312 -5.597656 C 7.964844 -5.660156 7.964844 -5.707031 8.054688 -5.765625 C 8.558594 -6.085938 9.015625 -6.789062 9.015625 -7.78125 C 9.015625 -9.78125 7.8125 -10.878906 5.691406 -10.878906 L 1.554688 -10.878906 C 1.464844 -10.878906 1.402344 -10.816406 1.402344 -10.726562 L 1.402344 -0.152344 C 1.402344 -0.0625 1.464844 0 1.554688 0 Z M 3.859375 -6.5 C 3.769531 -6.5 3.707031 -6.558594 3.707031 -6.652344 L 3.707031 -8.664062 C 3.707031 -8.757812 3.769531 -8.816406 3.859375 -8.816406 L 5.691406 -8.816406 C 6.453125 -8.816406 6.957031 -8.328125 6.957031 -7.660156 C 6.957031 -7.046875 6.53125 -6.5 5.660156 -6.5 Z M 3.859375 -2.058594 C 3.769531 -2.058594 3.707031 -2.121094 3.707031 -2.210938 L 3.707031 -4.285156 C 3.707031 -4.378906 3.769531 -4.441406 3.859375 -4.441406 L 6.117188 -4.441406 C 6.925781 -4.441406 7.445312 -3.890625 7.445312 -3.234375 C 7.445312 -2.503906 6.878906 -2.058594 6.117188 -2.058594 Z M 3.859375 -2.058594 "/></g></g></g><g fill="#737373" fill-opacity="1"><g transform="translate(77.074935, 225.555518)"><g><path d="M 6.851562 0.046875 C 9.992188 0.046875 12.28125 -2.304688 12.28125 -5.445312 C 12.28125 -8.589844 9.992188 -10.921875 6.851562 -10.921875 C 3.707031 -10.921875 1.402344 -8.589844 1.402344 -5.445312 C 1.402344 -2.304688 3.707031 0.046875 6.851562 0.046875 Z M 6.851562 -2.015625 C 5.1875 -2.015625 3.707031 -3.1875 3.707031 -5.445312 C 3.707031 -7.703125 5.1875 -8.863281 6.851562 -8.863281 C 8.496094 -8.863281 9.960938 -7.703125 9.960938 -5.445312 C 9.960938 -3.1875 8.496094 -2.015625 6.851562 -2.015625 Z M 6.851562 -2.015625 "/></g></g></g><g fill="#737373" fill-opacity="1"><g transform="translate(92.720164, 225.555518)"><g><path d="M 6.851562 0.046875 C 10.070312 0.046875 12.066406 -2.394531 12.066406 -5.445312 L 12.066406 -5.890625 C 12.066406 -5.980469 12.007812 -6.042969 11.914062 -6.042969 L 6.972656 -6.042969 C 6.878906 -6.042969 6.820312 -5.980469 6.820312 -5.890625 L 6.820312 -4.546875 C 6.820312 -4.453125 6.878906 -4.394531 6.972656 -4.394531 L 9.613281 -4.394531 C 9.703125 -4.394531 9.75 -4.332031 9.75 -4.242188 C 9.75 -3.386719 8.910156 -2.015625 6.988281 -2.015625 C 4.929688 -2.015625 3.707031 -3.601562 3.707031 -5.445312 C 3.707031 -7.292969 4.957031 -8.863281 6.894531 -8.863281 C 8.132812 -8.863281 9 -8.132812 9.445312 -7.367188 C 9.488281 -7.277344 9.597656 -7.261719 9.6875 -7.277344 L 11.550781 -7.535156 C 11.625 -7.550781 11.625 -7.613281 11.59375 -7.71875 C 10.96875 -9.472656 9.152344 -10.921875 6.757812 -10.921875 C 3.722656 -10.921875 1.402344 -8.46875 1.402344 -5.445312 C 1.402344 -2.410156 3.828125 0.046875 6.851562 0.046875 Z M 6.851562 0.046875 "/></g></g></g><g fill="#737373" fill-opacity="1"><g transform="translate(107.953751, 225.555518)"><g><path d="M 1.066406 0 L 2.976562 0 C 3.050781 0 3.113281 -0.03125 3.144531 -0.105469 L 3.890625 -1.722656 C 3.921875 -1.800781 3.996094 -1.832031 4.074219 -1.832031 L 8.679688 -1.832031 C 8.757812 -1.832031 8.816406 -1.800781 8.847656 -1.722656 L 9.582031 -0.105469 C 9.613281 -0.03125 9.6875 0 9.765625 0 L 11.703125 0 C 11.808594 0 11.855469 -0.078125 11.808594 -0.183594 L 7.035156 -10.769531 C 7.003906 -10.847656 6.925781 -10.878906 6.851562 -10.878906 L 5.902344 -10.878906 C 5.828125 -10.878906 5.75 -10.847656 5.722656 -10.769531 L 0.960938 -0.183594 C 0.914062 -0.078125 0.960938 0 1.066406 0 Z M 5.035156 -3.875 C 4.929688 -3.875 4.882812 -3.953125 4.929688 -4.058594 L 6.285156 -7.140625 C 6.332031 -7.246094 6.453125 -7.246094 6.5 -7.140625 L 7.828125 -4.058594 C 7.871094 -3.953125 7.828125 -3.875 7.71875 -3.875 Z M 5.035156 -3.875 "/></g></g></g><g fill="#737373" fill-opacity="1"><g transform="translate(122.989135, 225.555518)"><g><path d="M 1.554688 0 L 10.207031 0 C 10.296875 0 10.359375 -0.046875 10.359375 -0.152344 L 10.359375 -1.90625 C 10.359375 -2 10.296875 -2.058594 10.207031 -2.058594 L 4.804688 -2.058594 C 4.683594 -2.058594 4.636719 -2.167969 4.714844 -2.257812 L 10.296875 -9.460938 C 10.34375 -9.519531 10.359375 -9.566406 10.359375 -9.640625 L 10.359375 -10.726562 C 10.359375 -10.816406 10.296875 -10.878906 10.207031 -10.878906 L 1.554688 -10.878906 C 1.464844 -10.878906 1.402344 -10.816406 1.402344 -10.726562 L 1.402344 -8.972656 C 1.402344 -8.878906 1.464844 -8.816406 1.554688 -8.816406 L 6.925781 -8.816406 C 7.046875 -8.816406 7.09375 -8.710938 7.019531 -8.621094 L 1.464844 -1.433594 C 1.417969 -1.375 1.402344 -1.3125 1.402344 -1.234375 L 1.402344 -0.152344 C 1.402344 -0.0625 1.464844 0 1.554688 0 Z M 1.554688 0 "/></g></g></g><g fill="#737373" fill-opacity="1"><g transform="translate(136.881047, 225.555518)"><g><path d="M 1.402344 0 L 3.402344 0 C 3.492188 0 3.554688 -0.0625 3.554688 -0.152344 L 3.554688 -10.726562 C 3.554688 -10.816406 3.492188 -10.878906 3.402344 -10.878906 L 1.402344 -10.878906 C 1.3125 -10.878906 1.25 -10.816406 1.25 -10.726562 L 1.25 -0.152344 C 1.25 -0.0625 1.3125 0 1.402344 0 Z M 1.402344 0 "/></g></g></g><g fill="#737373" fill-opacity="1"><g transform="translate(143.820652, 225.555518)"><g><path d="M 6.710938 0.046875 C 8.984375 0.046875 10.894531 -1.402344 11.273438 -3.265625 C 11.304688 -3.339844 11.320312 -3.464844 11.199219 -3.476562 L 9.320312 -3.722656 C 9.246094 -3.738281 9.152344 -3.738281 9.109375 -3.632812 C 8.863281 -3.003906 8.117188 -2.015625 6.621094 -2.015625 C 5.082031 -2.015625 3.707031 -3.21875 3.707031 -5.460938 C 3.707031 -7.6875 5.082031 -8.878906 6.621094 -8.878906 C 8.117188 -8.878906 8.863281 -7.871094 9.109375 -7.246094 C 9.152344 -7.140625 9.246094 -7.140625 9.320312 -7.15625 L 11.199219 -7.398438 C 11.320312 -7.414062 11.304688 -7.535156 11.273438 -7.613281 C 10.878906 -9.472656 8.984375 -10.921875 6.710938 -10.921875 C 3.539062 -10.921875 1.402344 -8.4375 1.402344 -5.460938 C 1.402344 -2.488281 3.539062 0.046875 6.710938 0.046875 Z M 6.710938 0.046875 "/></g></g></g><g fill="#737373" fill-opacity="1"><g transform="translate(158.49012, 225.555518)"><g><path d="M 1.402344 0 L 3.402344 0 C 3.492188 0 3.554688 -0.0625 3.554688 -0.152344 L 3.554688 -10.726562 C 3.554688 -10.816406 3.492188 -10.878906 3.402344 -10.878906 L 1.402344 -10.878906 C 1.3125 -10.878906 1.25 -10.816406 1.25 -10.726562 L 1.25 -0.152344 C 1.25 -0.0625 1.3125 0 1.402344 0 Z M 1.402344 0 "/></g></g></g><g fill="#737373" fill-opacity="1"><g transform="translate(173.817724, 225.555518)"><g><path d="M 6.148438 0.046875 C 9.976562 0.046875 10.894531 -2.640625 10.894531 -4.683594 L 10.894531 -10.726562 C 10.894531 -10.816406 10.832031 -10.878906 10.742188 -10.878906 L 8.726562 -10.878906 C 8.636719 -10.878906 8.574219 -10.816406 8.574219 -10.726562 L 8.574219 -4.683594 C 8.527344 -2.835938 7.628906 -2.015625 6.148438 -2.015625 C 4.636719 -2.015625 3.707031 -2.851562 3.707031 -4.683594 L 3.707031 -10.726562 C 3.707031 -10.816406 3.644531 -10.878906 3.554688 -10.878906 L 1.554688 -10.878906 C 1.464844 -10.878906 1.402344 -10.816406 1.402344 -10.726562 L 1.402344 -4.683594 C 1.402344 -2.640625 2.320312 0.046875 6.148438 0.046875 Z M 6.148438 0.046875 "/></g></g></g><g fill="#737373" fill-opacity="1"><g transform="translate(188.075545, 225.555518)"><g><path d="M 1.554688 0 L 3.554688 0 C 3.644531 0 3.707031 -0.0625 3.707031 -0.152344 L 3.707031 -6.210938 C 3.707031 -6.347656 3.800781 -6.40625 3.890625 -6.285156 L 8.832031 -0.0898438 C 8.878906 -0.03125 8.941406 0 9.015625 0 L 10.3125 0 C 10.40625 0 10.464844 -0.0625 10.464844 -0.152344 L 10.464844 -10.726562 C 10.464844 -10.816406 10.40625 -10.878906 10.3125 -10.878906 L 8.300781 -10.878906 C 8.207031 -10.878906 8.148438 -10.816406 8.148438 -10.726562 L 8.148438 -4.667969 C 8.148438 -4.53125 8.054688 -4.484375 7.964844 -4.59375 L 3.035156 -10.785156 C 2.992188 -10.847656 2.929688 -10.878906 2.851562 -10.878906 L 1.554688 -10.878906 C 1.464844 -10.878906 1.402344 -10.816406 1.402344 -10.726562 L 1.402344 -0.152344 C 1.402344 -0.0625 1.464844 0 1.554688 0 Z M 1.554688 0 "/></g></g></g><g fill="#737373" fill-opacity="1"><g transform="translate(201.92172, 225.555518)"><g><path d="M 1.402344 0 L 3.402344 0 C 3.492188 0 3.554688 -0.0625 3.554688 -0.152344 L 3.554688 -10.726562 C 3.554688 -10.816406 3.492188 -10.878906 3.402344 -10.878906 L 1.402344 -10.878906 C 1.3125 -10.878906 1.25 -10.816406 1.25 -10.726562 L 1.25 -0.152344 C 1.25 -0.0625 1.3125 0 1.402344 0 Z M 1.402344 0 "/></g></g></g><g fill="#737373" fill-opacity="1"><g transform="translate(208.861324, 225.555518)"><g><path d="M 6.011719 0 L 6.972656 0 C 7.046875 0 7.109375 -0.03125 7.140625 -0.105469 L 11.886719 -10.695312 C 11.929688 -10.800781 11.871094 -10.878906 11.761719 -10.878906 L 9.75 -10.878906 C 9.671875 -10.878906 9.625 -10.847656 9.582031 -10.753906 L 6.605469 -3.722656 C 6.546875 -3.601562 6.453125 -3.601562 6.390625 -3.722656 L 3.402344 -10.753906 C 3.371094 -10.847656 3.3125 -10.878906 3.234375 -10.878906 L 1.21875 -10.878906 C 1.113281 -10.878906 1.066406 -10.800781 1.113281 -10.695312 L 5.828125 -0.121094 C 5.859375 -0.046875 5.933594 0 6.011719 0 Z M 6.011719 0 "/></g></g></g><g fill="#737373" fill-opacity="1"><g transform="translate(224.125397, 225.555518)"><g><path d="M 1.402344 0 L 7.949219 0 C 8.039062 0 8.101562 -0.0625 8.101562 -0.152344 L 8.101562 -1.90625 C 8.101562 -2 8.039062 -2.058594 7.949219 -2.058594 L 3.707031 -2.058594 C 3.617188 -2.058594 3.554688 -2.121094 3.554688 -2.210938 L 3.554688 -4.164062 C 3.554688 -4.257812 3.617188 -4.316406 3.707031 -4.316406 L 6.652344 -4.316406 C 6.742188 -4.316406 6.804688 -4.378906 6.804688 -4.46875 L 6.804688 -6.226562 C 6.804688 -6.316406 6.742188 -6.378906 6.652344 -6.378906 L 3.707031 -6.378906 C 3.617188 -6.378906 3.554688 -6.4375 3.554688 -6.53125 L 3.554688 -8.664062 C 3.554688 -8.757812 3.617188 -8.816406 3.707031 -8.816406 L 7.796875 -8.816406 C 7.886719 -8.816406 7.949219 -8.878906 7.949219 -8.972656 L 7.949219 -10.726562 C 7.949219 -10.816406 7.886719 -10.878906 7.796875 -10.878906 L 1.402344 -10.878906 C 1.3125 -10.878906 1.25 -10.816406 1.25 -10.726562 L 1.25 -0.152344 C 1.25 -0.0625 1.3125 0 1.402344 0 Z M 1.402344 0 "/></g></g></g><g fill="#737373" fill-opacity="1"><g transform="translate(235.608394, 225.555518)"><g><path d="M 1.402344 0 L 3.402344 0 C 3.492188 0 3.554688 -0.0625 3.554688 -0.152344 L 3.554688 -3.171875 C 3.554688 -3.265625 3.617188 -3.324219 3.707031 -3.324219 L 5.476562 -3.324219 C 5.554688 -3.324219 5.628906 -3.296875 5.660156 -3.21875 L 7.261719 -0.105469 C 7.292969 -0.03125 7.367188 0 7.445312 0 L 9.613281 0 C 9.71875 0 9.78125 -0.078125 9.71875 -0.183594 L 7.886719 -3.632812 C 7.84375 -3.707031 7.855469 -3.8125 7.933594 -3.84375 C 9.109375 -4.546875 9.808594 -5.644531 9.808594 -7.109375 C 9.808594 -9.320312 8.085938 -10.878906 5.902344 -10.878906 L 1.402344 -10.878906 C 1.3125 -10.878906 1.25 -10.816406 1.25 -10.726562 L 1.25 -0.152344 C 1.25 -0.0625 1.3125 0 1.402344 0 Z M 3.707031 -5.371094 C 3.617188 -5.371094 3.554688 -5.429688 3.554688 -5.523438 L 3.554688 -8.664062 C 3.554688 -8.757812 3.617188 -8.816406 3.707031 -8.816406 L 5.644531 -8.816406 C 6.636719 -8.816406 7.492188 -8.207031 7.492188 -7.109375 C 7.492188 -6.027344 6.621094 -5.371094 5.707031 -5.371094 Z M 3.707031 -5.371094 "/></g></g></g><g fill="#737373" fill-opacity="1"><g transform="translate(248.79897, 225.555518)"><g><path d="M 5.597656 0.046875 C 7.949219 0.046875 9.535156 -1.128906 9.535156 -2.976562 C 9.535156 -4.515625 8.789062 -5.722656 5.996094 -6.515625 C 4.546875 -6.941406 3.859375 -7.230469 3.859375 -7.917969 C 3.859375 -8.574219 4.46875 -8.863281 5.125 -8.863281 C 6.027344 -8.863281 6.773438 -8.4375 6.789062 -7.550781 C 6.789062 -7.429688 6.835938 -7.382812 6.957031 -7.398438 L 8.816406 -7.644531 C 8.925781 -7.660156 8.972656 -7.703125 8.972656 -7.796875 C 8.972656 -9.855469 7.261719 -10.921875 5.1875 -10.921875 C 3.1875 -10.921875 1.539062 -9.917969 1.539062 -7.964844 C 1.539062 -6.347656 2.425781 -5.417969 4.148438 -4.835938 C 5.980469 -4.210938 7.214844 -4.027344 7.214844 -3.113281 C 7.214844 -2.425781 6.605469 -2.015625 5.570312 -2.015625 C 4.5 -2.015625 3.476562 -2.488281 3.476562 -3.660156 C 3.476562 -3.785156 3.386719 -3.800781 3.265625 -3.785156 L 1.417969 -3.539062 C 1.234375 -3.507812 1.25 -3.433594 1.25 -3.324219 C 1.25 -0.792969 3.449219 0.046875 5.597656 0.046875 Z M 5.597656 0.046875 "/></g></g></g><g fill="#737373" fill-opacity="1"><g transform="translate(261.562651, 225.555518)"><g><path d="M 1.402344 0 L 3.402344 0 C 3.492188 0 3.554688 -0.0625 3.554688 -0.152344 L 3.554688 -10.726562 C 3.554688 -10.816406 3.492188 -10.878906 3.402344 -10.878906 L 1.402344 -10.878906 C 1.3125 -10.878906 1.25 -10.816406 1.25 -10.726562 L 1.25 -0.152344 C 1.25 -0.0625 1.3125 0 1.402344 0 Z M 1.402344 0 "/></g></g></g><g fill="#737373" fill-opacity="1"><g transform="translate(268.502256, 225.555518)"><g><path d="M 4.058594 0 L 6.070312 0 C 6.164062 0 6.226562 -0.0625 6.226562 -0.152344 L 6.226562 -8.664062 C 6.226562 -8.757812 6.285156 -8.816406 6.378906 -8.816406 L 9 -8.816406 C 9.09375 -8.816406 9.152344 -8.878906 9.152344 -8.972656 L 9.152344 -10.726562 C 9.152344 -10.816406 9.09375 -10.878906 9 -10.878906 L 1.113281 -10.878906 C 1.023438 -10.878906 0.960938 -10.816406 0.960938 -10.726562 L 0.960938 -8.972656 C 0.960938 -8.878906 1.023438 -8.816406 1.113281 -8.816406 L 3.753906 -8.816406 C 3.84375 -8.816406 3.90625 -8.757812 3.90625 -8.664062 L 3.90625 -0.152344 C 3.90625 -0.0625 3.964844 0 4.058594 0 Z M 4.058594 0 "/></g></g></g><g fill="#737373" fill-opacity="1"><g transform="translate(280.747566, 225.555518)"><g><path d="M 5.125 0 L 7.125 0 C 7.214844 0 7.277344 -0.046875 7.277344 -0.152344 L 7.277344 -4.789062 C 7.277344 -4.867188 7.308594 -4.929688 7.339844 -4.988281 L 11.425781 -10.695312 C 11.488281 -10.785156 11.457031 -10.878906 11.335938 -10.878906 L 9.109375 -10.878906 C 9.03125 -10.878906 8.972656 -10.863281 8.925781 -10.785156 L 6.226562 -7.003906 C 6.164062 -6.910156 6.070312 -6.910156 6.011719 -7.003906 L 3.324219 -10.785156 C 3.28125 -10.863281 3.21875 -10.878906 3.144531 -10.878906 L 0.914062 -10.878906 C 0.792969 -10.878906 0.761719 -10.785156 0.824219 -10.695312 L 4.914062 -4.988281 C 4.957031 -4.929688 4.972656 -4.867188 4.972656 -4.789062 L 4.972656 -0.152344 C 4.972656 -0.0625 5.035156 0 5.125 0 Z M 5.125 0 "/></g></g></g></svg>